<?xml version="1.0" ?>

<!-- Uploaded to: SVG Repo, www.svgrepo.com, Generator: SVG Repo Mixer Tools -->
<svg width="800px" height="800px" viewBox="0 0 400 400" xmlns="http://www.w3.org/2000/svg">

<defs>

<style>.cls-1{fill:#E6FAFC;}</style>

</defs>

<title/>

<g id="xxx-word">

<path class="cls-1" d="M325,105H250a5,5,0,0,1-5-5V25a5,5,0,1,1,10,0V95h70a5,5,0,0,1,0,10Z"/>

<path class="cls-1" d="M325,154.83a5,5,0,0,1-5-5V102.07L247.93,30H100A20,20,0,0,0,80,50v98.17a5,5,0,0,1-10,0V50a30,30,0,0,1,30-30H250a5,5,0,0,1,3.54,1.46l75,75A5,5,0,0,1,330,100v49.83A5,5,0,0,1,325,154.83Z"/>

<path class="cls-1" d="M300,380H100a30,30,0,0,1-30-30V275a5,5,0,0,1,10,0v75a20,20,0,0,0,20,20H300a20,20,0,0,0,20-20V275a5,5,0,0,1,10,0v75A30,30,0,0,1,300,380Z"/>

<path class="cls-1" d="M275,280H125a5,5,0,1,1,0-10H275a5,5,0,0,1,0,10Z"/>

<path class="cls-1" d="M200,330H125a5,5,0,1,1,0-10h75a5,5,0,0,1,0,10Z"/>

<path class="cls-1" d="M325,280H75a30,30,0,0,1-30-30V173.17a30,30,0,0,1,30-30h.2l250,1.66a30.09,30.09,0,0,1,29.81,30V250A30,30,0,0,1,325,280ZM75,153.17a20,20,0,0,0-20,20V250a20,20,0,0,0,20,20H325a20,20,0,0,0,20-20V174.83a20.06,20.06,0,0,0-19.88-20l-250-1.66Z"/>

<path class="cls-1" d="M142.46,236h-9.61V182.68h21.84q9.34,0,13.85,4.71a16.37,16.37,0,0,1-.37,22.95,17.49,17.49,0,0,1-12.38,4.53H142.46Zm0-29.37h11.37q4.45,0,6.8-2.19a7.58,7.58,0,0,0,2.34-5.82A8,8,0,0,0,160.8,193q-2.17-2.34-7.83-2.34H142.46Z"/>

<path class="cls-1" d="M175.2,223.15l9.34-2q1.68,7.93,12.89,7.93,5.12,0,7.87-2a6.07,6.07,0,0,0,2.75-5,7.09,7.09,0,0,0-1.25-4q-1.25-1.85-5.35-2.91l-10.2-2.66a25.1,25.1,0,0,1-7.73-3.11,12.15,12.15,0,0,1-4-4.9,15.54,15.54,0,0,1-1.5-6.76,14,14,0,0,1,5.31-11.46q5.31-4.32,13.59-4.32a24.86,24.86,0,0,1,12.29,3,13.56,13.56,0,0,1,6.89,8.52L207,195.65q-2.11-6.05-9.84-6.05-4.49,0-6.86,1.88a5.83,5.83,0,0,0-2.36,4.77q0,4.57,7.42,6.41l9.06,2.27q8.24,2.07,11.05,6.11a15.29,15.29,0,0,1,2.81,8.93,14.7,14.7,0,0,1-5.92,12.36q-5.92,4.51-15.33,4.51a28,28,0,0,1-13.89-3.32A16.29,16.29,0,0,1,175.2,223.15Z"/>

<path class="cls-1" d="M226.21,236V182.68h19.65q10.9,0,17.5,7.71t6.6,19q0,11.33-6.8,18.95T243.71,236Zm9.88-7.85h8A14.36,14.36,0,0,0,255,223.3q4.49-4.84,4.49-14.41a21.91,21.91,0,0,0-3.93-13.22,12.22,12.22,0,0,0-10.37-5.41h-9.14Z"/>

</g>

</svg>